<svg xmlns="http://www.w3.org/2000/svg" xmlns:xlink="http://www.w3.org/1999/xlink" width="2000" zoomAndPan="magnify" viewBox="0 0 1500 1499.999933" height="2000" preserveAspectRatio="xMidYMid meet" version="1.0"><defs><g/><clipPath id="557a749d5a"><path d="M 200 600.171875 L 466 600.171875 L 466 859 L 200 859 Z M 200 600.171875 " clip-rule="nonzero"/></clipPath><clipPath id="4c444ed077"><path d="M 103.203125 719.035156 L 581.519531 719.035156 L 581.519531 951.539062 L 103.203125 951.539062 Z M 103.203125 719.035156 " clip-rule="nonzero"/></clipPath><clipPath id="b6990b462b"><rect x="0" width="735" y="0" height="225"/></clipPath></defs><g clip-path="url(#557a749d5a)"><path fill="#ffffff" d="M 206.242188 859 C 227.933594 855.519531 254.28125 849.367188 283.359375 840.875 C 263.996094 829.261719 245.941406 809.402344 241.667969 775.441406 C 232.332031 701.320312 323.21875 621.605469 336.609375 610.304688 C 336.90625 610.054688 337.269531 609.925781 337.65625 609.925781 C 338.035156 609.925781 338.40625 610.054688 338.699219 610.304688 C 352.085938 621.605469 442.976562 701.320312 433.640625 775.441406 C 433.222656 778.777344 432.664062 781.972656 431.988281 785.042969 C 444.089844 779.378906 455.34375 773.757812 465.585938 768.269531 C 437.375 686.429688 354.113281 613.507812 339.136719 600.867188 C 338.722656 600.515625 338.199219 600.328125 337.65625 600.328125 C 337.109375 600.328125 336.585938 600.515625 336.171875 600.867188 C 317.152344 616.917969 188.066406 730.136719 201.324219 835.40625 C 202.390625 843.878906 204.066406 851.71875 206.242188 859 " fill-opacity="1" fill-rule="nonzero"/></g><g clip-path="url(#4c444ed077)"><path fill="#ffffff" d="M 580.988281 729.238281 C 575.648438 714.632812 530.871094 716.359375 466.710938 730.949219 C 502.03125 725.097656 525.441406 726.128906 528.847656 735.449219 C 535.84375 754.589844 455.816406 801.4375 350.101562 840.085938 C 244.382812 878.734375 153.011719 894.546875 146.015625 875.40625 C 142.722656 866.402344 158.691406 851.265625 187.53125 833.738281 C 131.863281 863.015625 98.535156 889.5 103.734375 903.71875 C 109.332031 919.03125 158.261719 916.394531 227.433594 899.804688 C 264.15625 945.523438 325.921875 950.875 336.8125 951.46875 L 336.8125 951.542969 C 336.8125 951.542969 337.105469 951.535156 337.65625 951.511719 C 338.203125 951.535156 338.496094 951.542969 338.496094 951.542969 L 338.496094 951.46875 C 353.199219 950.667969 460.660156 941.210938 473.984375 835.40625 C 475.019531 827.1875 475.183594 818.921875 474.601562 810.652344 C 543.636719 776.96875 586.855469 745.289062 580.988281 729.238281 " fill-opacity="1" fill-rule="nonzero"/></g><g transform="matrix(1, 0, 0, 1, 653, 663)"><g clip-path="url(#b6990b462b)"><g fill="#ffffff" fill-opacity="1"><g transform="translate(0.579684, 167.523654)"><g><path d="M 50.265625 1.109375 C 42.097656 1.109375 34.78125 -0.210938 28.3125 -2.859375 C 21.84375 -5.515625 16.671875 -9.4375 12.796875 -14.625 C 8.929688 -19.820312 6.894531 -26.082031 6.6875 -33.40625 L 35.625 -33.40625 C 36.050781 -29.269531 37.484375 -26.113281 39.921875 -23.9375 C 42.359375 -21.757812 45.539062 -20.671875 49.46875 -20.671875 C 53.488281 -20.671875 56.664062 -21.597656 59 -23.453125 C 61.332031 -25.316406 62.5 -27.890625 62.5 -31.171875 C 62.5 -33.929688 61.570312 -36.210938 59.71875 -38.015625 C 57.863281 -39.816406 55.582031 -41.300781 52.875 -42.46875 C 50.175781 -43.632812 46.335938 -44.957031 41.359375 -46.4375 C 34.140625 -48.664062 28.25 -50.894531 23.6875 -53.125 C 19.132812 -55.351562 15.210938 -58.640625 11.921875 -62.984375 C 8.640625 -67.328125 7 -73 7 -80 C 7 -90.394531 10.757812 -98.53125 18.28125 -104.40625 C 25.8125 -110.289062 35.625 -113.234375 47.71875 -113.234375 C 60.007812 -113.234375 69.921875 -110.289062 77.453125 -104.40625 C 84.984375 -98.53125 89.015625 -90.34375 89.546875 -79.84375 L 60.125 -79.84375 C 59.90625 -83.445312 58.578125 -86.28125 56.140625 -88.34375 C 53.703125 -90.414062 50.578125 -91.453125 46.765625 -91.453125 C 43.472656 -91.453125 40.816406 -90.578125 38.796875 -88.828125 C 36.785156 -87.078125 35.78125 -84.554688 35.78125 -81.265625 C 35.78125 -77.660156 37.476562 -74.851562 40.875 -72.84375 C 44.269531 -70.832031 49.570312 -68.660156 56.78125 -66.328125 C 63.988281 -63.890625 69.84375 -61.554688 74.34375 -59.328125 C 78.851562 -57.097656 82.75 -53.863281 86.03125 -49.625 C 89.320312 -45.382812 90.96875 -39.921875 90.96875 -33.234375 C 90.96875 -26.878906 89.347656 -21.101562 86.109375 -15.90625 C 82.878906 -10.707031 78.191406 -6.570312 72.046875 -3.5 C 65.898438 -0.425781 58.640625 1.109375 50.265625 1.109375 Z M 50.265625 1.109375 "/></g></g></g><g fill="#ffffff" fill-opacity="1"><g transform="translate(98.383705, 167.523654)"><g><path d="M 4.453125 -44.53125 C 4.453125 -53.65625 6.175781 -61.660156 9.625 -68.546875 C 13.070312 -75.441406 17.765625 -80.742188 23.703125 -84.453125 C 29.640625 -88.160156 36.265625 -90.015625 43.578125 -90.015625 C 49.835938 -90.015625 55.328125 -88.742188 60.046875 -86.203125 C 64.765625 -83.660156 68.394531 -80.320312 70.9375 -76.1875 L 70.9375 -88.75 L 98.125 -88.75 L 98.125 0 L 70.9375 0 L 70.9375 -12.5625 C 68.28125 -8.425781 64.59375 -5.085938 59.875 -2.546875 C 55.15625 -0.00390625 49.671875 1.265625 43.421875 1.265625 C 36.210938 1.265625 29.640625 -0.613281 23.703125 -4.375 C 17.765625 -8.132812 13.070312 -13.488281 9.625 -20.4375 C 6.175781 -27.382812 4.453125 -35.414062 4.453125 -44.53125 Z M 70.9375 -44.375 C 70.9375 -51.15625 69.050781 -56.507812 65.28125 -60.4375 C 61.519531 -64.363281 56.9375 -66.328125 51.53125 -66.328125 C 46.125 -66.328125 41.535156 -64.390625 37.765625 -60.515625 C 34.003906 -56.648438 32.125 -51.320312 32.125 -44.53125 C 32.125 -37.75 34.003906 -32.367188 37.765625 -28.390625 C 41.535156 -24.410156 46.125 -22.421875 51.53125 -22.421875 C 56.9375 -22.421875 61.519531 -24.378906 65.28125 -28.296875 C 69.050781 -32.222656 70.9375 -37.582031 70.9375 -44.375 Z M 70.9375 -44.375 "/></g></g></g><g fill="#ffffff" fill-opacity="1"><g transform="translate(206.365703, 167.523654)"><g><path d="M 37.0625 -117.6875 L 37.0625 0 L 9.859375 0 L 9.859375 -117.6875 Z M 37.0625 -117.6875 "/></g></g></g><g fill="#ffffff" fill-opacity="1"><g transform="translate(253.27983, 167.523654)"><g><path d="M 93.515625 -45.8125 C 93.515625 -43.257812 93.359375 -40.609375 93.046875 -37.859375 L 31.484375 -37.859375 C 31.910156 -32.335938 33.6875 -28.117188 36.8125 -25.203125 C 39.945312 -22.285156 43.789062 -20.828125 48.34375 -20.828125 C 55.132812 -20.828125 59.851562 -23.691406 62.5 -29.421875 L 91.453125 -29.421875 C 89.960938 -23.585938 87.28125 -18.335938 83.40625 -13.671875 C 79.539062 -9.015625 74.691406 -5.359375 68.859375 -2.703125 C 63.035156 -0.0546875 56.515625 1.265625 49.296875 1.265625 C 40.609375 1.265625 32.867188 -0.585938 26.078125 -4.296875 C 19.296875 -8.003906 13.992188 -13.300781 10.171875 -20.1875 C 6.359375 -27.082031 4.453125 -35.144531 4.453125 -44.375 C 4.453125 -53.601562 6.332031 -61.660156 10.09375 -68.546875 C 13.863281 -75.441406 19.140625 -80.742188 25.921875 -84.453125 C 32.710938 -88.160156 40.503906 -90.015625 49.296875 -90.015625 C 57.890625 -90.015625 65.523438 -88.210938 72.203125 -84.609375 C 78.890625 -81.003906 84.113281 -75.863281 87.875 -69.1875 C 91.632812 -62.507812 93.515625 -54.71875 93.515625 -45.8125 Z M 65.6875 -52.96875 C 65.6875 -57.625 64.09375 -61.332031 60.90625 -64.09375 C 57.726562 -66.851562 53.753906 -68.234375 48.984375 -68.234375 C 44.421875 -68.234375 40.578125 -66.90625 37.453125 -64.25 C 34.328125 -61.601562 32.394531 -57.84375 31.65625 -52.96875 Z M 65.6875 -52.96875 "/></g></g></g><g fill="#ffffff" fill-opacity="1"><g transform="translate(351.24288, 167.523654)"><g><path d="M 5.25 -55.984375 C 5.25 -67.015625 7.632812 -76.847656 12.40625 -85.484375 C 17.175781 -94.128906 23.828125 -100.863281 32.359375 -105.6875 C 40.898438 -110.507812 50.578125 -112.921875 61.390625 -112.921875 C 74.640625 -112.921875 85.984375 -109.421875 95.421875 -102.421875 C 104.859375 -95.421875 111.171875 -85.878906 114.359375 -73.796875 L 84.453125 -73.796875 C 82.222656 -78.460938 79.066406 -82.015625 74.984375 -84.453125 C 70.910156 -86.890625 66.273438 -88.109375 61.078125 -88.109375 C 52.703125 -88.109375 45.914062 -85.191406 40.71875 -79.359375 C 35.519531 -73.523438 32.921875 -65.734375 32.921875 -55.984375 C 32.921875 -46.234375 35.519531 -38.441406 40.71875 -32.609375 C 45.914062 -26.773438 52.703125 -23.859375 61.078125 -23.859375 C 66.273438 -23.859375 70.910156 -25.078125 74.984375 -27.515625 C 79.066406 -29.953125 82.222656 -33.503906 84.453125 -38.171875 L 114.359375 -38.171875 C 111.171875 -26.085938 104.859375 -16.570312 95.421875 -9.625 C 85.984375 -2.675781 74.640625 0.796875 61.390625 0.796875 C 50.578125 0.796875 40.898438 -1.613281 32.359375 -6.4375 C 23.828125 -11.257812 17.175781 -17.960938 12.40625 -26.546875 C 7.632812 -35.140625 5.25 -44.953125 5.25 -55.984375 Z M 5.25 -55.984375 "/></g></g></g><g fill="#ffffff" fill-opacity="1"><g transform="translate(472.424448, 167.523654)"><g><path d="M 4.453125 -44.53125 C 4.453125 -53.65625 6.175781 -61.660156 9.625 -68.546875 C 13.070312 -75.441406 17.765625 -80.742188 23.703125 -84.453125 C 29.640625 -88.160156 36.265625 -90.015625 43.578125 -90.015625 C 49.835938 -90.015625 55.328125 -88.742188 60.046875 -86.203125 C 64.765625 -83.660156 68.394531 -80.320312 70.9375 -76.1875 L 70.9375 -88.75 L 98.125 -88.75 L 98.125 0 L 70.9375 0 L 70.9375 -12.5625 C 68.28125 -8.425781 64.59375 -5.085938 59.875 -2.546875 C 55.15625 -0.00390625 49.671875 1.265625 43.421875 1.265625 C 36.210938 1.265625 29.640625 -0.613281 23.703125 -4.375 C 17.765625 -8.132812 13.070312 -13.488281 9.625 -20.4375 C 6.175781 -27.382812 4.453125 -35.414062 4.453125 -44.53125 Z M 70.9375 -44.375 C 70.9375 -51.15625 69.050781 -56.507812 65.28125 -60.4375 C 61.519531 -64.363281 56.9375 -66.328125 51.53125 -66.328125 C 46.125 -66.328125 41.535156 -64.390625 37.765625 -60.515625 C 34.003906 -56.648438 32.125 -51.320312 32.125 -44.53125 C 32.125 -37.75 34.003906 -32.367188 37.765625 -28.390625 C 41.535156 -24.410156 46.125 -22.421875 51.53125 -22.421875 C 56.9375 -22.421875 61.519531 -24.378906 65.28125 -28.296875 C 69.050781 -32.222656 70.9375 -37.582031 70.9375 -44.375 Z M 70.9375 -44.375 "/></g></g></g><g fill="#ffffff" fill-opacity="1"><g transform="translate(580.406447, 167.523654)"><g><path d="M 45.96875 1.265625 C 38.226562 1.265625 31.332031 -0.0546875 25.28125 -2.703125 C 19.238281 -5.359375 14.46875 -8.988281 10.96875 -13.59375 C 7.46875 -18.207031 5.507812 -23.378906 5.09375 -29.109375 L 31.96875 -29.109375 C 32.289062 -26.035156 33.722656 -23.539062 36.265625 -21.625 C 38.804688 -19.71875 41.929688 -18.765625 45.640625 -18.765625 C 49.035156 -18.765625 51.660156 -19.425781 53.515625 -20.75 C 55.367188 -22.082031 56.296875 -23.804688 56.296875 -25.921875 C 56.296875 -28.460938 54.96875 -30.34375 52.3125 -31.5625 C 49.664062 -32.789062 45.375 -34.144531 39.4375 -35.625 C 33.082031 -37.113281 27.78125 -38.675781 23.53125 -40.3125 C 19.289062 -41.957031 15.632812 -44.554688 12.5625 -48.109375 C 9.488281 -51.660156 7.953125 -56.457031 7.953125 -62.5 C 7.953125 -67.59375 9.351562 -72.234375 12.15625 -76.421875 C 14.96875 -80.609375 19.101562 -83.921875 24.5625 -86.359375 C 30.03125 -88.796875 36.53125 -90.015625 44.0625 -90.015625 C 55.1875 -90.015625 63.957031 -87.257812 70.375 -81.75 C 76.789062 -76.238281 80.476562 -68.921875 81.4375 -59.796875 L 56.296875 -59.796875 C 55.878906 -62.867188 54.53125 -65.304688 52.25 -67.109375 C 49.96875 -68.921875 46.972656 -69.828125 43.265625 -69.828125 C 40.078125 -69.828125 37.632812 -69.210938 35.9375 -67.984375 C 34.25 -66.765625 33.40625 -65.097656 33.40625 -62.984375 C 33.40625 -60.441406 34.753906 -58.53125 37.453125 -57.25 C 40.160156 -55.976562 44.375 -54.707031 50.09375 -53.4375 C 56.664062 -51.738281 62.019531 -50.066406 66.15625 -48.421875 C 70.289062 -46.785156 73.921875 -44.132812 77.046875 -40.46875 C 80.179688 -36.8125 81.800781 -31.910156 81.90625 -25.765625 C 81.90625 -20.566406 80.445312 -15.925781 77.53125 -11.84375 C 74.613281 -7.757812 70.425781 -4.550781 64.96875 -2.21875 C 59.507812 0.101562 53.175781 1.265625 45.96875 1.265625 Z M 45.96875 1.265625 "/></g></g></g><g fill="#ffffff" fill-opacity="1"><g transform="translate(669.145695, 167.523654)"><g><path d="M 59.328125 -23.0625 L 59.328125 0 L 45.484375 0 C 35.628906 0 27.941406 -2.410156 22.421875 -7.234375 C 16.910156 -12.054688 14.15625 -19.929688 14.15625 -30.859375 L 14.15625 -66.15625 L 3.34375 -66.15625 L 3.34375 -88.75 L 14.15625 -88.75 L 14.15625 -110.375 L 41.359375 -110.375 L 41.359375 -88.75 L 59.171875 -88.75 L 59.171875 -66.15625 L 41.359375 -66.15625 L 41.359375 -30.53125 C 41.359375 -27.882812 41.992188 -25.976562 43.265625 -24.8125 C 44.535156 -23.644531 46.65625 -23.0625 49.625 -23.0625 Z M 59.328125 -23.0625 "/></g></g></g></g></g></svg>